{"glyphs":{"0":{"ha":708,"x_min":0,"x_max":0,"o":"m 354 -14 b 636 285 540 -14 636 88 l 636 743 b 354 1042 636 940 540 1042 b 72 743 168 1042 72 940 l 72 285 b 354 -14 72 88 168 -14 z m 286 276 l 286 751 b 354 847 286 818 308 847 b 422 751 400 847 422 818 l 422 276 b 354 181 422 210 400 181 b 286 276 308 181 286 210 z "},"1":{"ha":451,"x_min":0,"x_max":0,"o":"m 11 742 l 146 746 l 146 0 l 368 0 l 368 1028 l 231 1028 b 51 933 176 961 135 931 l 11 935 z "},"2":{"ha":624,"x_min":0,"x_max":0,"o":"m 524 557 b 582 754 565 629 582 683 l 582 788 b 310 1042 582 940 486 1042 b 32 786 135 1042 32 938 l 32 663 l 246 660 l 243 772 b 299 856 242 826 260 856 b 361 765 338 856 361 831 b 333 640 361 710 350 672 l 47 111 l 47 0 l 588 0 l 588 189 l 317 189 z "},"3":{"ha":663,"x_min":0,"x_max":0,"o":"m 329 446 b 403 340 378 446 403 413 l 403 278 b 329 174 403 204 378 174 b 253 278 279 174 250 204 l 256 360 l 42 358 l 43 276 b 329 -14 46 93 146 -14 b 615 276 513 -14 615 93 l 615 324 b 463 546 615 439 563 518 l 463 556 b 606 739 560 569 606 640 l 606 778 b 329 1042 606 943 513 1042 b 53 778 146 1042 56 943 l 51 686 l 256 682 l 253 774 b 329 867 251 839 279 867 b 403 774 378 867 403 839 l 403 703 b 329 603 403 631 378 603 l 251 603 l 251 446 z "},"4":{"ha":640,"x_min":0,"x_max":0,"o":"m 11 151 l 354 151 l 354 0 l 535 0 l 535 151 l 624 151 l 624 333 l 535 333 l 535 1028 l 294 1028 l 11 296 z m 207 333 l 328 663 l 354 663 l 354 333 z "},"5":{"ha":656,"x_min":0,"x_max":0,"o":"m 50 331 l 51 276 b 336 -14 56 93 153 -14 b 622 318 519 -14 622 108 l 622 400 b 401 701 622 607 539 701 b 282 663 346 701 308 689 l 263 663 l 275 835 l 588 835 l 588 1028 l 104 1028 l 61 461 l 260 458 b 331 529 265 506 288 529 b 410 403 386 529 410 490 l 410 292 b 336 174 410 213 385 174 b 260 278 286 174 258 204 l 261 332 z "},"6":{"ha":693,"x_min":0,"x_max":0,"o":"m 72 744 l 72 276 b 357 -14 72 93 174 -14 b 643 304 540 -14 643 103 l 643 400 b 436 674 643 593 558 674 b 297 606 368 674 328 651 l 278 606 l 278 753 b 354 854 278 819 300 854 b 422 788 400 854 422 831 l 422 751 l 625 754 l 624 796 b 354 1042 617 967 515 1042 b 72 744 169 1042 72 939 z m 281 285 l 281 404 b 356 515 281 488 307 515 b 431 404 404 515 431 488 l 431 285 b 356 174 431 201 404 174 b 281 285 307 174 281 201 z "},"7":{"ha":599,"x_min":0,"x_max":0,"o":"m 524 769 l 585 868 l 585 1028 l 7 1028 l 7 825 l 385 825 l 358 788 b 160 147 201 569 160 392 b 164 0 160 101 161 51 l 381 0 l 381 113 b 524 769 381 431 404 576 z "},"8":{"ha":667,"x_min":0,"x_max":0,"o":"m 47 324 l 47 276 b 333 -14 47 93 150 -14 b 619 276 517 -14 619 93 l 619 324 b 467 546 619 439 567 518 l 467 558 b 610 750 564 581 610 651 l 610 778 b 333 1042 610 943 517 1042 b 57 778 150 1042 57 943 l 57 750 b 200 558 57 651 103 581 l 200 546 b 47 324 100 518 47 439 z m 257 278 l 257 340 b 333 450 257 418 283 450 b 410 340 383 450 410 418 l 410 278 b 333 174 410 204 383 174 b 257 278 283 174 257 204 z m 257 714 l 257 774 b 333 867 257 839 283 867 b 410 774 383 867 410 839 l 410 714 b 333 617 410 646 383 617 b 257 714 283 617 257 646 z "},"9":{"ha":693,"x_min":0,"x_max":0,"o":"m 621 283 l 621 751 b 336 1042 621 935 519 1042 b 50 724 153 1042 50 925 l 50 628 b 257 354 50 435 135 354 b 396 422 325 354 365 376 l 415 422 l 415 275 b 339 174 415 208 393 174 b 271 240 293 174 271 197 l 271 276 l 68 274 l 69 232 b 339 -14 76 61 178 -14 b 621 283 524 -14 621 89 z m 263 624 l 263 743 b 338 854 263 826 289 854 b 413 743 386 854 413 826 l 413 624 b 338 513 413 540 386 513 b 263 624 289 513 263 540 z "}," ":{"ha":389,"x_min":0,"x_max":0,"o":""}," ":{"ha":389,"x_min":0,"x_max":0,"o":""},"A":{"ha":692,"x_min":0,"x_max":0,"o":"m -7 0 l 243 0 l 265 151 l 426 151 l 449 0 l 699 0 l 506 1028 l 186 1028 z m 285 346 l 335 697 l 344 769 l 347 769 l 357 697 l 407 346 z "},"a":{"ha":692,"x_min":0,"x_max":0,"o":"m -7 0 l 243 0 l 265 151 l 426 151 l 449 0 l 699 0 l 506 1028 l 186 1028 z m 285 346 l 335 697 l 344 769 l 347 769 l 357 697 l 407 346 z "},"B":{"ha":725,"x_min":0,"x_max":0,"o":"m 83 0 l 378 0 b 683 276 579 0 683 100 l 683 319 b 529 524 683 432 658 499 l 529 533 b 667 751 640 561 667 640 l 667 779 b 383 1028 667 939 574 1028 l 83 1028 z m 297 176 l 297 439 l 361 439 b 467 319 433 439 467 401 l 467 292 b 361 176 467 210 433 176 z m 297 603 l 297 851 l 353 851 b 458 743 425 851 458 825 l 458 715 b 353 603 458 633 425 603 z "},"b":{"ha":725,"x_min":0,"x_max":0,"o":"m 83 0 l 378 0 b 683 276 579 0 683 100 l 683 319 b 529 524 683 432 658 499 l 529 533 b 667 751 640 561 667 640 l 667 779 b 383 1028 667 939 574 1028 l 83 1028 z m 297 176 l 297 439 l 361 439 b 467 319 433 439 467 401 l 467 292 b 361 176 467 210 433 176 z m 297 603 l 297 851 l 353 851 b 458 743 425 851 458 825 l 458 715 b 353 603 458 633 425 603 z "},"C":{"ha":693,"x_min":0,"x_max":0,"o":"m 49 771 l 49 257 b 354 -14 49 78 157 -14 b 650 229 546 -14 649 68 l 651 422 l 417 424 l 417 286 b 354 210 417 233 396 210 b 296 286 315 210 296 233 l 296 742 b 354 818 296 794 315 818 b 417 742 396 818 417 794 l 417 631 l 651 632 l 650 799 b 354 1042 649 960 546 1042 b 49 771 157 1042 49 950 z "},"c":{"ha":693,"x_min":0,"x_max":0,"o":"m 49 771 l 49 257 b 354 -14 49 78 157 -14 b 650 229 546 -14 649 68 l 651 422 l 417 424 l 417 286 b 354 210 417 233 396 210 b 296 286 315 210 296 233 l 296 742 b 354 818 296 794 315 818 b 417 742 396 818 417 794 l 417 631 l 651 632 l 650 799 b 354 1042 649 960 546 1042 b 49 771 157 1042 49 950 z "},"D":{"ha":718,"x_min":0,"x_max":0,"o":"m 69 0 l 401 0 b 669 274 572 0 669 94 l 669 743 b 372 1028 669 929 561 1028 l 69 1028 z m 317 211 l 317 826 l 356 826 b 422 738 399 826 422 799 l 422 293 b 356 211 422 236 399 211 z "},"d":{"ha":718,"x_min":0,"x_max":0,"o":"m 69 0 l 401 0 b 669 274 572 0 669 94 l 669 743 b 372 1028 669 929 561 1028 l 69 1028 z m 317 211 l 317 826 l 356 826 b 422 738 399 826 422 799 l 422 293 b 356 211 422 236 399 211 z "},"E":{"ha":611,"x_min":0,"x_max":0,"o":"m 69 0 l 599 0 l 599 217 l 315 217 l 315 421 l 544 421 l 544 625 l 315 625 l 315 821 l 590 821 l 590 1028 l 69 1028 z "},"e":{"ha":611,"x_min":0,"x_max":0,"o":"m 69 0 l 599 0 l 599 217 l 315 217 l 315 421 l 544 421 l 544 625 l 315 625 l 315 821 l 590 821 l 590 1028 l 69 1028 z "},"F":{"ha":621,"x_min":0,"x_max":0,"o":"m 83 0 l 331 0 l 331 385 l 589 385 l 589 599 l 331 599 l 331 808 l 607 808 l 607 1028 l 83 1028 z "},"f":{"ha":621,"x_min":0,"x_max":0,"o":"m 83 0 l 331 0 l 331 385 l 589 385 l 589 599 l 331 599 l 331 808 l 607 808 l 607 1028 l 83 1028 z "},"G":{"ha":700,"x_min":0,"x_max":0,"o":"m 49 764 l 49 250 b 361 -14 49 71 161 -14 b 651 121 496 -14 594 39 l 651 549 l 372 549 l 372 364 l 425 364 l 425 269 b 361 207 425 228 403 207 b 296 269 318 207 296 228 l 296 756 b 357 819 296 799 317 819 b 418 756 397 819 418 799 l 418 672 l 651 672 l 651 792 b 357 1042 651 963 547 1042 b 49 764 158 1042 49 953 z "},"g":{"ha":700,"x_min":0,"x_max":0,"o":"m 49 764 l 49 250 b 361 -14 49 71 161 -14 b 651 121 496 -14 594 39 l 651 549 l 372 549 l 372 364 l 425 364 l 425 269 b 361 207 425 228 403 207 b 296 269 318 207 296 228 l 296 756 b 357 819 296 799 317 819 b 418 756 397 819 418 799 l 418 672 l 651 672 l 651 792 b 357 1042 651 963 547 1042 b 49 764 158 1042 49 953 z "},"H":{"ha":763,"x_min":0,"x_max":0,"o":"m 69 1028 l 69 0 l 317 0 l 317 401 l 446 401 l 446 0 l 693 0 l 693 1028 l 446 1028 l 446 638 l 317 638 l 317 1028 z "},"h":{"ha":763,"x_min":0,"x_max":0,"o":"m 69 1028 l 69 0 l 317 0 l 317 401 l 446 401 l 446 0 l 693 0 l 693 1028 l 446 1028 l 446 638 l 317 638 l 317 1028 z "},"I":{"ha":389,"x_min":0,"x_max":0,"o":"m 69 0 l 319 0 l 319 1028 l 69 1028 z "},"i":{"ha":389,"x_min":0,"x_max":0,"o":"m 69 0 l 319 0 l 319 1028 l 69 1028 z "},"J":{"ha":428,"x_min":0,"x_max":0,"o":"m 7 0 l 160 0 b 376 231 364 0 376 22 l 376 1028 l 126 1028 l 126 317 b 74 249 126 269 108 249 l 7 249 z "},"j":{"ha":428,"x_min":0,"x_max":0,"o":"m 7 0 l 160 0 b 376 231 364 0 376 22 l 376 1028 l 126 1028 l 126 317 b 74 249 126 269 108 249 l 7 249 z "},"K":{"ha":754,"x_min":0,"x_max":0,"o":"m 83 1028 l 83 0 l 308 0 l 308 292 l 306 394 l 313 394 l 519 0 l 775 0 l 476 542 l 769 1028 l 521 1028 l 313 658 l 306 658 l 308 767 l 308 1028 z "},"k":{"ha":754,"x_min":0,"x_max":0,"o":"m 83 1028 l 83 0 l 308 0 l 308 292 l 306 394 l 313 394 l 519 0 l 775 0 l 476 542 l 769 1028 l 521 1028 l 313 658 l 306 658 l 308 767 l 308 1028 z "},"L":{"ha":647,"x_min":0,"x_max":0,"o":"m 83 1028 l 83 0 l 640 0 l 640 224 l 331 224 l 331 1028 z "},"l":{"ha":647,"x_min":0,"x_max":0,"o":"m 83 1028 l 83 0 l 640 0 l 640 224 l 331 224 l 331 1028 z "},"M":{"ha":950,"x_min":0,"x_max":0,"o":"m 83 0 l 278 0 l 275 615 l 429 0 l 521 0 l 675 615 l 672 0 l 867 0 l 867 1028 l 599 1028 l 475 475 l 351 1028 l 83 1028 z "},"m":{"ha":950,"x_min":0,"x_max":0,"o":"m 83 0 l 278 0 l 275 615 l 429 0 l 521 0 l 675 615 l 672 0 l 867 0 l 867 1028 l 599 1028 l 475 475 l 351 1028 l 83 1028 z "},"N":{"ha":760,"x_min":0,"x_max":0,"o":"m 69 0 l 281 0 l 279 449 l 278 522 l 281 522 l 301 453 l 449 0 l 690 0 l 690 1028 l 479 1028 l 479 572 l 481 499 l 478 499 l 457 568 l 308 1028 l 69 1028 z "},"n":{"ha":760,"x_min":0,"x_max":0,"o":"m 69 0 l 281 0 l 279 449 l 278 522 l 281 522 l 301 453 l 449 0 l 690 0 l 690 1028 l 479 1028 l 479 572 l 481 499 l 478 499 l 457 568 l 308 1028 l 69 1028 z "},"O":{"ha":725,"x_min":0,"x_max":0,"o":"m 363 -14 b 676 257 576 -14 676 78 l 676 771 b 363 1042 676 950 576 1042 b 49 771 149 1042 49 950 l 49 257 b 363 -14 49 78 149 -14 z m 296 276 l 296 751 b 363 819 296 799 319 819 b 429 751 406 819 429 799 l 429 276 b 363 208 429 229 406 208 b 296 276 319 208 296 229 z "},"o":{"ha":725,"x_min":0,"x_max":0,"o":"m 363 -14 b 676 257 576 -14 676 78 l 676 771 b 363 1042 676 950 576 1042 b 49 771 149 1042 49 950 l 49 257 b 363 -14 49 78 149 -14 z m 296 276 l 296 751 b 363 819 296 799 319 819 b 429 751 406 819 429 799 l 429 276 b 363 208 429 229 406 208 b 296 276 319 208 296 229 z "},"P":{"ha":707,"x_min":0,"x_max":0,"o":"m 69 0 l 319 0 l 319 361 l 388 361 b 700 701 565 361 700 453 b 440 1028 700 931 589 1028 l 69 1028 z m 319 560 l 319 829 l 369 829 b 449 694 422 829 449 800 b 375 560 449 589 424 560 z "},"p":{"ha":707,"x_min":0,"x_max":0,"o":"m 69 0 l 319 0 l 319 361 l 388 361 b 700 701 565 361 700 453 b 440 1028 700 931 589 1028 l 69 1028 z m 319 560 l 319 829 l 369 829 b 449 694 422 829 449 800 b 375 560 449 589 424 560 z "},"Q":{"ha":756,"x_min":0,"x_max":0,"o":"m 363 208 b 296 276 319 208 296 229 l 296 751 b 363 819 296 799 319 819 b 429 751 406 819 429 799 l 429 276 b 363 208 429 229 406 208 z m 49 257 b 283 -8 49 101 124 13 b 417 -167 310 -74 343 -115 l 653 -167 l 653 -156 b 493 1 574 -97 531 -54 b 676 257 618 33 676 119 l 676 771 b 363 1042 676 950 576 1042 b 49 771 149 1042 49 950 z "},"q":{"ha":756,"x_min":0,"x_max":0,"o":"m 363 208 b 296 276 319 208 296 229 l 296 751 b 363 819 296 799 319 819 b 429 751 406 819 429 799 l 429 276 b 363 208 429 229 406 208 z m 49 257 b 283 -8 49 101 124 13 b 417 -167 310 -74 343 -115 l 653 -167 l 653 -156 b 493 1 574 -97 531 -54 b 676 257 618 33 676 119 l 676 771 b 363 1042 676 950 576 1042 b 49 771 149 1042 49 950 z "},"R":{"ha":743,"x_min":0,"x_max":0,"o":"m 69 0 l 317 0 l 317 399 l 335 399 b 433 286 400 399 433 374 l 433 165 b 485 0 433 90 443 43 l 743 0 l 743 18 b 685 178 696 61 686 104 l 683 286 b 561 501 682 385 640 454 b 701 747 653 539 701 610 b 399 1028 701 933 606 1028 l 69 1028 z m 317 592 l 317 833 l 361 833 b 450 713 419 833 450 808 b 361 592 450 617 419 592 z "},"r":{"ha":743,"x_min":0,"x_max":0,"o":"m 69 0 l 317 0 l 317 399 l 335 399 b 433 286 400 399 433 374 l 433 165 b 485 0 433 90 443 43 l 743 0 l 743 18 b 685 178 696 61 686 104 l 683 286 b 561 501 682 385 640 454 b 701 747 653 539 701 610 b 399 1028 701 933 606 1028 l 69 1028 z m 317 592 l 317 833 l 361 833 b 450 713 419 833 450 808 b 361 592 450 617 419 592 z "},"S":{"ha":632,"x_min":0,"x_max":0,"o":"m 264 294 l 22 294 b 19 229 21 272 19 250 b 318 -14 19 85 125 -14 b 617 283 489 -14 617 82 b 465 568 617 415 572 490 l 314 679 b 263 775 276 707 263 729 b 314 839 263 819 282 839 b 360 769 344 839 360 815 l 360 744 l 597 744 l 597 790 b 311 1042 597 942 490 1042 b 19 761 133 1042 19 944 b 160 476 19 638 53 556 l 311 365 b 374 258 357 332 374 306 b 315 189 374 207 349 189 b 263 257 281 189 263 211 b 264 294 263 271 263 282 z "},"s":{"ha":632,"x_min":0,"x_max":0,"o":"m 264 294 l 22 294 b 19 229 21 272 19 250 b 318 -14 19 85 125 -14 b 617 283 489 -14 617 82 b 465 568 617 415 572 490 l 314 679 b 263 775 276 707 263 729 b 314 839 263 819 282 839 b 360 769 344 839 360 815 l 360 744 l 597 744 l 597 790 b 311 1042 597 942 490 1042 b 19 761 133 1042 19 944 b 160 476 19 638 53 556 l 311 365 b 374 258 357 332 374 306 b 315 189 374 207 349 189 b 263 257 281 189 263 211 b 264 294 263 271 263 282 z "},"T":{"ha":633,"x_min":0,"x_max":0,"o":"m 633 1028 l 0 1028 l 0 819 l 192 819 l 192 0 l 442 0 l 442 819 l 633 819 z "},"t":{"ha":633,"x_min":0,"x_max":0,"o":"m 633 1028 l 0 1028 l 0 819 l 192 819 l 192 0 l 442 0 l 442 819 l 633 819 z "},"U":{"ha":753,"x_min":0,"x_max":0,"o":"m 63 1028 l 63 229 b 376 -14 63 76 174 -14 b 690 229 579 -14 690 76 l 690 1028 l 443 1028 l 443 278 b 376 213 443 232 425 213 b 310 278 328 213 310 232 l 310 1028 z "},"u":{"ha":753,"x_min":0,"x_max":0,"o":"m 63 1028 l 63 229 b 376 -14 63 76 174 -14 b 690 229 579 -14 690 76 l 690 1028 l 443 1028 l 443 278 b 376 213 443 232 425 213 b 310 278 328 213 310 232 l 310 1028 z "},"V":{"ha":642,"x_min":0,"x_max":0,"o":"m 192 0 l 450 0 l 663 1028 l 433 1028 l 331 440 l 311 440 l 208 1028 l -21 1028 z "},"v":{"ha":642,"x_min":0,"x_max":0,"o":"m 192 0 l 450 0 l 663 1028 l 433 1028 l 331 440 l 311 440 l 208 1028 l -21 1028 z "},"W":{"ha":997,"x_min":0,"x_max":0,"o":"m 174 0 l 378 0 l 489 522 l 508 522 l 619 0 l 824 0 l 1011 1028 l 778 1028 l 692 476 l 681 476 l 593 1028 l 404 1028 l 317 476 l 306 476 l 219 1028 l -14 1028 z "},"w":{"ha":997,"x_min":0,"x_max":0,"o":"m 174 0 l 378 0 l 489 522 l 508 522 l 619 0 l 824 0 l 1011 1028 l 778 1028 l 692 476 l 681 476 l 593 1028 l 404 1028 l 317 476 l 306 476 l 219 1028 l -14 1028 z "},"X":{"ha":725,"x_min":0,"x_max":0,"o":"m 506 1028 l 368 676 l 357 676 l 219 1028 l -14 1028 l 214 526 l -21 0 l 214 0 l 358 379 l 367 379 l 511 0 l 746 0 l 511 526 l 739 1028 z "},"x":{"ha":725,"x_min":0,"x_max":0,"o":"m 506 1028 l 368 676 l 357 676 l 219 1028 l -14 1028 l 214 526 l -21 0 l 214 0 l 358 379 l 367 379 l 511 0 l 746 0 l 511 526 l 739 1028 z "},"Y":{"ha":669,"x_min":0,"x_max":0,"o":"m 210 0 l 460 0 l 460 397 l 690 1028 l 439 1028 l 356 743 l 336 672 l 333 672 l 314 743 l 231 1028 l -21 1028 l 210 397 z "},"y":{"ha":669,"x_min":0,"x_max":0,"o":"m 210 0 l 460 0 l 460 397 l 690 1028 l 439 1028 l 356 743 l 336 672 l 333 672 l 314 743 l 231 1028 l -21 1028 l 210 397 z "},"Z":{"ha":571,"x_min":0,"x_max":0,"o":"m 28 0 l 543 0 l 543 203 l 281 203 l 536 917 l 536 1028 l 42 1028 l 42 825 l 283 825 l 28 111 z "},"z":{"ha":571,"x_min":0,"x_max":0,"o":"m 28 0 l 543 0 l 543 203 l 281 203 l 536 917 l 536 1028 l 42 1028 l 42 825 l 283 825 l 28 111 z "},".":{"ha":347,"x_min":0,"x_max":0,"o":"m 56 319 l 56 0 l 292 0 l 292 319 z "},",":{"ha":347,"x_min":0,"x_max":0,"o":"m 56 0 l 181 0 b 106 -167 150 -51 125 -107 l 226 -167 b 292 0 243 -107 264 -51 l 292 319 l 56 319 z "},":":{"ha":375,"x_min":0,"x_max":0,"o":"m 69 250 l 69 0 l 306 0 l 306 250 z m 69 444 l 306 444 l 306 694 l 69 694 z "},";":{"ha":375,"x_min":0,"x_max":0,"o":"m 69 0 l 194 0 b 119 -167 164 -51 139 -107 l 240 -167 b 306 0 257 -107 278 -51 l 306 250 l 69 250 z m 69 444 l 306 444 l 306 694 l 69 694 z "},"…":{"ha":347,"x_min":0,"x_max":0,"o":"m 56 319 l 56 0 l 292 0 l 292 319 z "},"!":{"ha":389,"x_min":0,"x_max":0,"o":"m 76 250 l 76 0 l 313 0 l 313 250 z m 76 764 l 146 313 l 243 313 l 313 764 l 313 1028 l 76 1028 z "},"?":{"ha":582,"x_min":0,"x_max":0,"o":"m 147 250 l 147 0 l 383 0 l 383 250 z m 17 697 l 213 694 l 211 761 b 282 861 210 832 232 861 b 354 767 331 861 354 836 b 311 651 354 718 344 688 l 243 576 b 175 397 189 517 175 468 l 175 318 l 356 318 l 356 369 b 383 446 356 401 361 421 l 457 531 b 554 744 522 606 554 668 l 554 789 b 282 1042 554 942 451 1042 b 17 775 118 1042 17 936 z "},"•":{"ha":833,"x_min":0,"x_max":0,"o":""},"*":{"ha":588,"x_min":0,"x_max":0,"o":"m 204 1017 l 218 889 l 211 885 l 93 938 l 71 944 l 14 772 l 38 765 l 161 739 l 165 729 l 79 633 l 65 614 l 211 508 l 225 528 l 289 639 l 297 639 l 363 526 l 376 508 l 522 614 l 508 633 l 422 728 l 425 738 l 551 764 l 574 771 l 518 943 l 496 936 l 376 883 l 371 888 l 385 1017 l 385 1040 l 204 1040 z "},"#":{"ha":833,"x_min":0,"x_max":0,"o":""},"/":{"ha":833,"x_min":0,"x_max":0,"o":""},"-":{"ha":415,"x_min":0,"x_max":0,"o":"m 28 569 l 28 361 l 388 361 l 388 569 z "},"–":{"ha":556,"x_min":0,"x_max":0,"o":"m 28 550 l 28 381 l 528 381 l 528 550 z "},"—":{"ha":764,"x_min":0,"x_max":0,"o":"m 28 550 l 28 381 l 736 381 l 736 550 z "},"_":{"ha":665,"x_min":0,"x_max":0,"o":"m -3 -25 l -3 -167 l 668 -167 l 668 -25 z "},"(":{"ha":451,"x_min":0,"x_max":0,"o":"m 76 535 l 76 410 b 282 -97 76 208 115 106 l 451 -97 b 292 381 317 107 292 208 l 292 564 b 451 1042 292 735 317 838 l 282 1042 b 76 535 115 839 76 736 z "},")":{"ha":451,"x_min":0,"x_max":0,"o":"m 375 410 l 375 535 b 169 1042 375 736 336 839 l 0 1042 b 160 564 135 838 160 735 l 160 381 b 0 -97 160 208 135 107 l 169 -97 b 375 410 336 106 375 208 z "},"“":{"ha":583,"x_min":0,"x_max":0,"o":"m 528 875 l 422 875 b 486 1042 449 926 469 982 l 371 1042 b 319 875 358 982 342 926 l 319 556 l 528 556 z m 56 556 l 264 556 l 264 875 l 158 875 b 222 1042 185 926 206 982 l 107 1042 b 56 875 94 982 78 926 z "},"”":{"ha":583,"x_min":0,"x_max":0,"o":"m 56 708 l 161 708 b 97 542 135 657 114 601 l 213 542 b 264 708 225 601 242 657 l 264 1028 l 56 1028 z m 319 708 l 425 708 b 361 542 399 657 378 601 l 476 542 b 528 708 489 601 506 657 l 528 1028 l 319 1028 z "},"‘":{"ha":347,"x_min":0,"x_max":0,"o":"m 292 875 l 167 875 b 242 1042 197 926 222 982 l 121 1042 b 56 875 104 982 83 926 l 56 556 l 292 556 z "},"’":{"ha":347,"x_min":0,"x_max":0,"o":"m 56 708 l 181 708 b 106 542 150 657 125 601 l 226 542 b 292 708 243 601 264 657 l 292 1028 l 56 1028 z "},"\"":{"ha":833,"x_min":0,"x_max":0,"o":""},"'":{"ha":833,"x_min":0,"x_max":0,"o":""},"&":{"ha":753,"x_min":0,"x_max":0,"o":"m 557 549 l 501 401 l 417 529 l 497 603 b 593 799 569 668 593 722 l 593 819 b 347 1042 593 954 492 1042 b 92 806 193 1042 92 950 l 92 792 b 193 547 92 706 119 663 l 169 531 b 36 319 78 469 36 407 l 36 260 b 301 -14 36 85 133 -14 b 501 67 379 -14 447 14 l 544 0 l 767 0 l 608 240 l 744 549 z m 236 239 l 236 325 b 275 421 236 364 246 394 l 415 200 b 317 153 390 168 356 153 b 236 239 264 153 236 183 z m 288 767 l 288 800 b 351 881 288 854 307 881 b 417 793 393 881 417 854 l 417 772 b 379 688 417 738 404 710 l 336 650 b 288 767 310 688 288 719 z "},"$":{"ha":575,"x_min":0,"x_max":0,"o":"m 533 750 b 357 996 533 876 469 969 l 360 1075 l 211 1075 l 214 996 b 33 768 101 971 33 885 l 33 696 b 154 486 33 619 60 556 l 310 372 b 364 275 350 343 364 319 b 286 208 364 225 333 208 b 214 274 244 208 211 225 l 218 364 l 33 361 l 33 261 b 218 31 33 143 99 57 l 215 -57 l 364 -57 l 361 31 b 550 274 474 56 550 143 l 550 340 b 422 553 550 432 514 485 l 267 667 b 219 750 233 692 219 710 b 288 819 219 801 246 819 b 353 738 339 819 357 792 l 349 676 l 533 679 z "},"%":{"ha":803,"x_min":0,"x_max":0,"o":"m 517 1028 l 114 0 l 292 0 l 694 1028 z m 25 819 b 199 644 25 707 86 644 b 372 819 311 644 372 707 l 372 867 b 199 1042 372 979 311 1042 b 25 867 86 1042 25 979 z m 163 804 l 163 882 b 199 932 163 915 174 932 b 235 882 224 932 235 915 l 235 804 b 199 754 235 771 224 754 b 163 804 174 754 163 771 z m 431 161 b 604 -14 431 49 492 -14 b 778 161 717 -14 778 49 l 778 208 b 604 383 778 321 717 383 b 431 208 492 383 431 321 z m 568 146 l 568 224 b 604 274 568 257 579 274 b 640 224 629 274 640 257 l 640 146 b 604 96 640 113 629 96 b 568 146 579 96 568 113 z "}}}
